<svg width="1482" height="225" viewBox="0 0 1482 225" fill="none" xmlns="http://www.w3.org/2000/svg">
<g filter="url(#filter0_dd)">
<g clip-path="url(#clip0)">
<path d="M27.4201 0.73291H4V128.294H27.4201V0.73291Z" fill="white"/>
<path d="M389.699 0.73291H232.345V23.4593H389.699V0.73291Z" fill="white"/>
<path d="M232.345 75.5098V129.027H256.497V75.5098H390.431V52.7834H232.345V75.5098Z" fill="white"/>
<path d="M437.271 0.73291H413.851V129.027H415.315H437.271H571.205V105.567H437.271V0.73291Z" fill="white"/>
<path d="M729.29 85.7734C729.29 96.7701 719.775 106.3 708.797 106.3H638.537C626.827 106.3 618.044 97.5032 618.044 85.7734V0.73291H594.624V85.7734C594.624 109.233 614.385 128.294 638.537 128.294H708.797C732.949 128.294 752.71 109.233 752.71 85.0403V0.73291H729.29V85.7734Z" fill="white"/>
<path d="M776.13 61.5807V75.5098V105.567V126.827V129.027H933.484V105.567H799.55V75.5098H933.484V52.7834H776.13V61.5807Z" fill="white"/>
<path d="M933.484 0.73291H776.13V23.4593H933.484V0.73291Z" fill="white"/>
<path d="M1319.92 61.5807V75.5098V105.567V126.827V129.027H1478V105.567H1343.34V75.5098H1478V52.7834H1319.92V61.5807Z" fill="white"/>
<path d="M1478 0.73291H1319.92V23.4593H1478V0.73291Z" fill="white"/>
<path d="M185.505 98.9694L74.9921 1.46602V0.73291H51.572V129.027H74.9921V32.2566L185.505 129.027H208.926V0.73291H185.505V98.9694Z" fill="white"/>
<path d="M1139.14 46.1858L1138.41 82.8412C1138.41 108.5 1159.63 129.027 1185.25 129.027H1295.03V106.301H1185.25C1172.08 106.301 1161.83 96.0372 1161.83 82.8412L1162.56 46.1858C1162.56 32.9899 1173.54 22.7264 1185.98 22.7264H1295.76V0H1185.98C1160.37 0 1139.14 20.527 1139.14 46.1858Z" fill="white"/>
<path d="M1091.57 98.9694L981.056 1.46602V0.73291H957.636V129.027H981.056V32.2566L1091.57 129.027H1114.99V0.73291H1091.57V98.9694Z" fill="white"/>
<path d="M357.496 166.415C370.67 166.415 372.865 173.746 372.865 178.878C372.865 184.743 369.206 187.675 364.815 189.142C368.474 189.875 375.061 192.807 375.061 201.605C375.061 213.334 364.815 215.534 356.032 215.534H332.612V165.682L357.496 166.415ZM344.322 185.476H355.3C359.691 185.476 361.155 182.544 361.155 180.344C361.155 178.145 359.692 175.213 354.568 175.213H344.322V185.476ZM344.322 206.003H356.764C358.96 206.003 363.351 205.27 363.351 200.138C363.351 195.74 359.691 194.273 355.3 194.273H344.322V206.003Z" fill="white"/>
<path d="M522.168 186.209V195.007H498.016V206.003H525.828V215.534H486.306V165.682H525.096V175.946H497.284V186.209H522.168Z" fill="white"/>
<path d="M667.08 166.415L686.109 216.267H673.667L670.007 206.736H651.71L648.783 216.267H636.341L654.638 166.415H667.08ZM667.08 197.939L660.493 178.878L654.638 197.939H667.08Z" fill="white"/>
<path d="M807.6 166.415V195.739C807.6 203.804 809.796 208.202 817.115 208.202C824.434 208.202 826.629 204.537 826.629 195.739V166.415H838.339V197.206C838.339 202.337 837.607 217.733 817.115 217.733C795.89 217.733 795.89 203.071 795.89 197.206V166.415C795.89 166.415 807.6 166.415 807.6 166.415Z" fill="white"/>
<path d="M949.585 175.946V166.415H991.302V175.946H976.664V216.267H964.954V175.946C964.954 175.946 949.585 175.946 949.585 175.946Z" fill="white"/>
<path d="M1136.21 166.415H1148.66L1131.09 197.206V216.267H1119.38V197.206L1101.82 166.415H1114.99L1125.24 187.675L1136.21 166.415Z" fill="white"/>
</g>
<rect x="4.5" y="0.5" width="1473" height="216" stroke="black"/>
</g>
<defs>
<filter id="filter0_dd" x="0" y="0" width="1482" height="225" filterUnits="userSpaceOnUse" color-interpolation-filters="sRGB">
<feFlood flood-opacity="0" result="BackgroundImageFix"/>
<feColorMatrix in="SourceAlpha" type="matrix" values="0 0 0 0 0 0 0 0 0 0 0 0 0 0 0 0 0 0 127 0"/>
<feOffset dy="4"/>
<feGaussianBlur stdDeviation="2"/>
<feColorMatrix type="matrix" values="0 0 0 0 0 0 0 0 0 0 0 0 0 0 0 0 0 0 0.25 0"/>
<feBlend mode="normal" in2="BackgroundImageFix" result="effect1_dropShadow"/>
<feColorMatrix in="SourceAlpha" type="matrix" values="0 0 0 0 0 0 0 0 0 0 0 0 0 0 0 0 0 0 127 0"/>
<feOffset dy="4"/>
<feGaussianBlur stdDeviation="2"/>
<feColorMatrix type="matrix" values="0 0 0 0 0 0 0 0 0 0 0 0 0 0 0 0 0 0 0.25 0"/>
<feBlend mode="normal" in2="effect1_dropShadow" result="effect2_dropShadow"/>
<feBlend mode="normal" in="SourceGraphic" in2="effect2_dropShadow" result="shape"/>
</filter>
<clipPath id="clip0">
<rect x="4" width="1474" height="217" fill="white"/>
</clipPath>
</defs>
</svg>
