<?xml version="1.0" encoding="utf-8"?>
<!-- Generator: Adobe Illustrator 25.0.0, SVG Export Plug-In . SVG Version: 6.00 Build 0)  -->
<svg version="1.1" id="Layer_1" xmlns="http://www.w3.org/2000/svg" xmlns:xlink="http://www.w3.org/1999/xlink" x="0px" y="0px"
	 viewBox="0 0 201.4 29.6" style="enable-background:new 0 0 201.4 29.6;" xml:space="preserve">
<g>
	<g>
		<rect y="0.1" width="3.2" height="17.4"/>
		<rect x="31.2" y="0.1" width="21.5" height="3.1"/>
		<polygon points="31.2,10.3 31.2,10.3 31.2,17.6 34.5,17.6 34.5,10.3 52.8,10.3 52.8,7.2 31.2,7.2 		"/>
		<polygon points="59.2,0.1 56,0.1 56,17.6 56.2,17.6 59.2,17.6 77.5,17.6 77.5,14.4 59.2,14.4 		"/>
		<path d="M99.1,11.7c0,1.5-1.3,2.8-2.8,2.8h-9.6c-1.6,0-2.8-1.2-2.8-2.8V0.1h-3.2v11.6c0,3.2,2.7,5.8,6,5.8h9.6c3.3,0,6-2.6,6-5.9
			V0.1h-3.2V11.7z"/>
		<polygon points="105.5,8.4 105.5,10.3 105.5,14.4 105.5,17.3 105.5,17.6 127,17.6 127,14.4 108.7,14.4 108.7,10.3 127,10.3 
			127,7.2 105.5,7.2 		"/>
		<rect x="105.5" y="0.1" width="21.5" height="3.1"/>
		<polygon points="179.8,8.4 179.8,10.3 179.8,14.4 179.8,17.3 179.8,17.6 201.4,17.6 201.4,14.4 183,14.4 183,10.3 201.4,10.3 
			201.4,7.2 179.8,7.2 		"/>
		<rect x="179.8" y="0.1" width="21.6" height="3.1"/>
		<polygon points="24.8,13.5 9.7,0.2 9.7,0.1 6.5,0.1 6.5,17.6 9.7,17.6 9.7,4.4 24.8,17.6 28,17.6 28,0.1 24.8,0.1 		"/>
		<path d="M155.1,6.3l-0.1,5c0,3.5,2.9,6.3,6.4,6.3h15v-3.1h-15c-1.8,0-3.2-1.4-3.2-3.2l0.1-5c0-1.8,1.5-3.2,3.2-3.2h15V0h-15
			C158,0,155.1,2.8,155.1,6.3z"/>
		<polygon points="148.6,13.5 133.5,0.2 133.5,0.1 130.3,0.1 130.3,17.6 133.5,17.6 133.5,4.4 148.6,17.6 151.8,17.6 151.8,0.1 
			148.6,0.1 		"/>
	</g>
	<g>
		<path d="M48.3,22.7c1.8,0,2.1,1,2.1,1.7c0,0.8-0.5,1.2-1.1,1.4v0c0.5,0.1,1.4,0.5,1.4,1.7c0,1.6-1.4,1.9-2.6,1.9h-3.2v-6.8
			L48.3,22.7L48.3,22.7z M46.5,25.3H48c0.6,0,0.8-0.4,0.8-0.7c0-0.3-0.2-0.7-0.9-0.7h-1.4L46.5,25.3L46.5,25.3z M46.5,28.1h1.7
			c0.3,0,0.9-0.1,0.9-0.8c0-0.6-0.5-0.8-1.1-0.8h-1.5L46.5,28.1L46.5,28.1z"/>
		<path d="M70.8,25.4v1.2h-3.3v1.5h3.8v1.3h-5.4v-6.8h5.3V24h-3.8v1.4H70.8z"/>
		<path d="M90.6,22.7l2.6,6.8h-1.7L91,28.2h-2.5l-0.4,1.3h-1.7l2.5-6.8H90.6z M90.6,27l-0.9-2.6L88.9,27H90.6z"/>
		<path d="M109.8,22.7v4c0,1.1,0.3,1.7,1.3,1.7c1,0,1.3-0.5,1.3-1.7v-4h1.6v4.2c0,0.7-0.1,2.8-2.9,2.8c-2.9,0-2.9-2-2.9-2.8v-4.2
			C108.2,22.7,109.8,22.7,109.8,22.7z"/>
		<path d="M129.2,24v-1.3h5.7V24h-2v5.5h-1.6V24C131.3,24,129.2,24,129.2,24z"/>
		<path d="M154.7,22.7h1.7l-2.4,4.2v2.6h-1.6v-2.6l-2.4-4.2h1.8l1.4,2.9L154.7,22.7z"/>
	</g>
</g>
</svg>
